Coordinates
version=1
nRows=13
nColumns=38
inDegrees=no

Units are S.I. units (second, meters, Newtons, ...)
If the header above contains a line with 'inDegrees', this indicates whether rotational values are in degrees (yes) or radians (no).

endheader
time	pelvis_tilt	pelvis_list	pelvis_rotation	pelvis_tx	pelvis_ty	pelvis_tz	hip_flexion_r	hip_adduction_r	hip_rotation_r	knee_angle_r	ankle_angle_r	subtalar_angle_r	mtp_angle_r	hip_flexion_l	hip_adduction_l	hip_rotation_l	knee_angle_l	ankle_angle_l	subtalar_angle_l	mtp_angle_l	lumbar_extension	lumbar_bending	lumbar_rotation	arm_flex_r	arm_add_r	arm_rot_r	elbow_flex_r	pro_sup_r	wrist_flex_r	wrist_dev_r	arm_flex_l	arm_add_l	arm_rot_l	elbow_flex_l	pro_sup_l	wrist_flex_l	wrist_dev_l
0.52	0.242816	1.23854	1.42571	1.01349	-0.185027	1.02047	0.758754	0.0308185	0.0073064	0.68359	-0.111043	0	0	0.473446	-0.139352	-0.0603214	1.31502	-0.222028	0	0	0.548627	0.156387	-0.0299906	0.316887	-0.383645	0.658705	1.11577	0.669513	0	0	-0.190838	-0.461841	-0.130896	1.23637	0.813582	0	0
0.53	0.232986	1.24026	1.43877	1.01267	-0.175044	1.02241	0.748927	0.024009	-0.000299707	0.690505	-0.105162	0	0	0.506722	-0.132657	-0.0445596	1.3525	-0.222308	0	0	0.542013	0.150349	-0.0291306	0.320542	-0.382482	0.657513	1.11265	0.670596	0	0	-0.184295	-0.461498	-0.127529	1.23264	0.81324	0	0
0.54	0.221266	1.2417	1.45463	1.0116	-0.165267	1.02433	0.738784	0.0163408	-0.00783781	0.695497	-0.100224	0	0	0.538971	-0.123048	-0.0287652	1.38334	-0.212883	0	0	0.535501	0.143281	-0.0287255	0.323578	-0.381231	0.655112	1.11027	0.66828	0	0	-0.177314	-0.46146	-0.123646	1.2289	0.812146	0	0
0.55	0.20823	1.24314	1.47188	1.01048	-0.15551	1.0263	0.727627	0.00867666	-0.0143252	0.698054	-0.0960626	0	0	0.569637	-0.111721	-0.0150651	1.40619	-0.200842	0	0	0.528964	0.135558	-0.0281208	0.326986	-0.380291	0.653019	1.10766	0.667239	0	0	-0.170215	-0.462065	-0.119091	1.22535	0.810932	0	0
0.56	0.195267	1.24473	1.48904	1.00928	-0.145729	1.02844	0.715043	0.0012114	-0.0205735	0.698425	-0.0923461	0	0	0.59887	-0.0994452	-0.0035518	1.42008	-0.19193	0	0	0.522118	0.127845	-0.0276014	0.330413	-0.379328	0.650685	1.10471	0.668303	0	0	-0.163177	-0.462299	-0.114921	1.22185	0.809225	0	0
0.57	0.185249	1.24625	1.50316	1.00801	-0.135851	1.03072	0.70099	-0.00544913	-0.0277694	0.696922	-0.0888724	0	0	0.627217	-0.0880693	0.00654337	1.42614	-0.187686	0	0	0.51552	0.121321	-0.0275394	0.333365	-0.378561	0.648133	1.1018	0.67056	0	0	-0.156515	-0.461782	-0.111247	1.21814	0.807687	0	0
0.58	0.182463	1.247	1.5133	1.00563	-0.125745	1.03301	0.685004	-0.0137543	-0.0421883	0.692588	-0.0858844	0	0	0.655973	-0.0754145	0.0199035	1.42669	-0.1854	0	0	0.511393	0.116963	-0.0317031	0.335285	-0.380601	0.64674	1.10091	0.671774	0	0	-0.151244	-0.45874	-0.108126	1.21409	0.807487	0	0
0.59	0.176137	1.24694	1.52362	1.00415	-0.115579	1.03517	0.669908	-0.019673	-0.0519081	0.687649	-0.0820651	0	0	0.683078	-0.0658145	0.0282615	1.42215	-0.180908	0	0	0.507998	0.112267	-0.0329573	0.337194	-0.380875	0.645759	1.09913	0.672546	0	0	-0.146705	-0.456924	-0.10619	1.21036	0.807575	0	0
0.6	0.169102	1.24551	1.53384	1.00265	-0.105349	1.03706	0.656038	-0.0257762	-0.0618366	0.681662	-0.0786204	0	0	0.709414	-0.0568343	0.0347253	1.41286	-0.173646	0	0	0.506881	0.107897	-0.0338419	0.338455	-0.381224	0.645025	1.09751	0.673126	0	0	-0.143072	-0.45471	-0.104863	1.20677	0.807864	0	0
0.61	0.161254	1.24174	1.5447	1.00094	-0.0950787	1.03853	0.645053	-0.0326002	-0.0732385	0.67621	-0.0754414	0	0	0.736277	-0.0471233	0.0410131	1.39763	-0.164791	0	0	0.509615	0.10378	-0.0349659	0.338704	-0.3819	0.644431	1.09623	0.674176	0	0	-0.140745	-0.452105	-0.103797	1.20308	0.808733	0	0
0.62	0.145736	1.2254	1.56587	0.998603	-0.0853282	1.03861	0.649397	-0.0443264	-0.0850452	0.673654	-0.0725983	0	0	0.770177	-0.0191418	0.0728765	1.36819	-0.141267	0	0	0.529724	0.0958164	-0.0378002	0.334114	-0.382098	0.642747	1.0949	0.675461	0	0	-0.142256	-0.449582	-0.10264	1.19888	0.809671	0	0
0.63	0.140651	1.22363	1.56648	0.998069	-0.0739332	1.03969	0.636349	-0.0446194	-0.0913609	0.667452	-0.0701213	0	0	0.794376	-0.0301992	0.0478606	1.34748	-0.150677	0	0	0.532378	0.0956952	-0.0337158	0.332761	-0.381859	0.642388	1.09398	0.675582	0	0	-0.14327	-0.448827	-0.101849	1.19704	0.808619	0	0
0.64	0.129519	1.2173	1.57634	0.996895	-0.0633064	1.04033	0.629781	-0.0498271	-0.0988909	0.663303	-0.0682462	0	0	0.81668	-0.0244012	0.0479091	1.31355	-0.153827	0	0	0.539528	0.0918671	-0.0309852	0.331109	-0.382043	0.641891	1.09324	0.676419	0	0	-0.143213	-0.44769	-0.100959	1.19433	0.807567	0	0
